# xmcd CD database file
#
# Track frame offsets:
#	182
#	10912
#	22907
#	34107
#	46142
#	57022
#	69510
#	83887
#	97502
#	102487
#	113607
#	124867
#	133687
#	143327
#	152550
#	161990
#
# Disc length: 2319 seconds
#
# Revision: 0
# Processed by: cddbd v1.5.1PL0 Copyright (c) Steve Scherf et al.
# Submitted via: CDex 1.50
#
DISCID=be090d10
DTITLE=Jim Reeves - 16 Golden Hits
DYEAR=1900
DGENRE=Country
TTITLE0=Let Me Remember
TTITLE1=How Many
TTITLE2=Tahiti
TTITLE3=Padre Of San Antone
TTITLE4=My Rambling Heart
TTITLE5=Heart Breaking Baby
TTITLE6=You're The Sweetest Thing
TTITLE7=What Were You Doing Last Night
TTITLE8=I'll Always Love You
TTITLE9=El Rancho Del Rio
TTITLE10=It's Hard To Love Just One
TTITLE11=Marie
TTITLE12=Margie
TTITLE13=Sweet Sue, Just You
TTITLE14=Ramona
TTITLE15=Marie Elena
EXTD=
EXTT0=
EXTT1=
EXTT2=
EXTT3=
EXTT4=
EXTT5=
EXTT6=
EXTT7=
EXTT8=
EXTT9=
EXTT10=
EXTT11=
EXTT12=
EXTT13=
EXTT14=
EXTT15=
PLAYORDER=
